<svg version="1.1" id="Layer_1" xmlns="http://www.w3.org/2000/svg" xmlns:xlink="http://www.w3.org/1999/xlink" x="0px" y="0px"
	 width="100%" viewBox="0 0 764 332" enable-background="new 0 0 764 332" xml:space="preserve">
<path fill="#FFFFFF" opacity="1.000000" stroke="none" 
	d="
M481.000000,333.000000 
	C320.703125,333.000000 160.906235,333.000000 1.054674,333.000000 
	C1.054674,222.395050 1.054674,111.790054 1.054674,1.092530 
	C255.546860,1.092530 510.093781,1.092530 764.820312,1.092530 
	C764.820312,111.666435 764.820312,222.333191 764.820312,333.000000 
	C670.456726,333.000000 575.978394,333.000000 481.000000,333.000000 
M243.072876,291.580109 
	C263.574249,271.537018 273.111725,246.960037 269.593262,218.724777 
	C264.827789,180.482071 242.325577,155.913330 206.008667,143.550629 
	C212.031937,127.620552 213.817444,111.471184 210.375549,95.177032 
	C201.313004,52.274422 166.292725,24.209131 122.405922,24.165134 
	C95.907516,24.138571 69.409058,24.159788 42.910625,24.159540 
	C41.120842,24.159523 39.331059,24.159538 36.362465,24.159538 
	C37.502201,30.338928 37.849838,36.031425 39.624691,41.237347 
	C52.505508,79.018837 84.537552,85.986977 116.782249,82.034439 
	C116.931885,79.159019 117.083084,76.253296 117.279503,72.478729 
	C137.862549,85.716774 157.783554,98.529022 178.327759,111.742088 
	C157.863327,124.899651 137.958206,137.697601 117.382912,150.926437 
	C117.070869,146.958832 116.845970,144.099289 116.601479,140.990692 
	C110.837135,140.990692 105.518608,141.044418 100.201584,140.978119 
	C92.211563,140.878494 84.178017,141.177124 76.242668,140.443939 
	C60.899464,139.026291 48.153584,131.975220 36.999683,119.953117 
	C36.999683,127.557358 36.975693,134.144836 37.003735,140.732101 
	C37.142841,173.410080 62.690536,198.932297 95.446182,199.022598 
	C120.277855,199.091064 145.109879,199.040665 169.941742,199.027039 
	C171.558655,199.026154 173.175522,198.887131 174.926010,198.806183 
	C175.127060,195.664703 175.302170,192.928375 175.551285,189.035767 
	C196.217560,202.341766 216.107101,215.147675 236.582230,228.330597 
	C215.940140,241.600220 196.027802,254.400726 175.450333,267.628815 
	C175.250168,263.609985 175.105194,260.699493 174.933807,257.258789 
	C172.606018,257.258789 170.645584,257.259003 168.685150,257.258759 
	C139.686874,257.255188 110.688477,257.202332 81.690369,257.270935 
	C69.256042,257.300354 58.103302,253.469635 48.053986,246.389420 
	C44.331573,243.766815 41.030846,240.545685 36.999077,237.142822 
	C36.999077,244.058380 36.987221,250.337097 37.001060,256.615753 
	C37.074726,290.042023 62.735199,315.747986 96.256157,315.845459 
	C124.920898,315.928833 153.587280,316.040436 182.250610,315.826935 
	C205.318939,315.655090 225.583160,307.921173 243.072876,291.580109 
M406.530243,220.003479 
	C416.345215,219.734818 426.235107,220.133850 435.957703,219.042297 
	C450.856476,217.369598 462.583069,210.312073 469.332794,196.226410 
	C474.426147,185.597366 475.012421,174.339951 473.635162,163.024933 
	C471.515930,145.613907 460.529907,132.703110 443.616302,130.192825 
	C428.129425,127.894287 412.278992,128.044922 396.385376,127.104294 
	C396.385376,158.871857 396.385376,189.252243 396.385376,220.003479 
	C399.613312,220.003479 402.578644,220.003479 406.530243,220.003479 
M556.073792,152.317703 
	C553.741882,145.224045 551.263794,138.173523 549.151733,131.014999 
	C548.333069,128.240234 547.009705,127.477936 544.229065,127.542816 
	C536.078125,127.733017 527.910583,127.838768 519.768494,127.509323 
	C515.962402,127.355331 514.270264,128.495285 513.122192,132.181839 
	C507.546143,150.086975 501.672607,167.899521 495.895691,185.742035 
	C492.239624,197.034058 488.568207,208.321121 484.820068,219.867950 
	C494.192261,219.867950 502.984619,219.867950 512.040344,219.867950 
	C513.342163,215.186493 514.527100,210.528625 515.984497,205.957657 
	C516.358704,204.783844 517.572266,203.011551 518.433655,202.992081 
	C527.872986,202.778580 537.319092,202.858200 546.578979,202.858200 
	C548.252930,208.967575 549.767700,214.495850 551.180908,219.653564 
	C560.497498,219.653564 569.187805,219.653564 578.274109,219.653564 
	C570.854492,197.169556 563.579285,175.123016 556.073792,152.317703 
M696.642334,214.979904 
	C697.079468,216.570679 697.516663,218.161438 697.979614,219.846130 
	C706.987305,219.846130 715.786560,219.846130 724.580322,219.846130 
	C724.638000,219.448792 724.803772,219.090408 724.713806,218.815948 
	C715.029175,189.286072 705.345398,159.755829 695.542908,130.265045 
	C695.183228,129.182999 693.663086,127.749916 692.661133,127.731812 
	C682.349487,127.545433 672.033264,127.617447 661.497742,127.617447 
	C651.496948,158.435562 641.579834,188.995667 631.566833,219.851105 
	C641.090881,219.851105 649.897644,219.851105 658.794495,219.851105 
	C660.380310,214.179230 661.933350,208.624481 663.550964,202.838989 
	C669.962585,202.838989 676.109985,202.838989 682.257446,202.838989 
	C693.658691,202.838989 693.658691,202.838989 696.642334,214.979904 
M346.233032,199.081909 
	C346.233032,193.639420 346.233032,188.196915 346.233032,182.241699 
	C355.437012,182.241699 364.351257,182.241699 373.335022,182.241699 
	C373.335022,175.345398 373.335022,168.974350 373.335022,162.096268 
	C364.052155,162.096268 355.159637,162.096268 346.294189,162.096268 
	C346.294189,157.149796 346.294189,152.725723 346.294189,147.775208 
	C356.264862,147.775208 365.990448,147.775208 375.693237,147.775208 
	C375.693237,140.966721 375.693237,134.696259 375.693237,128.319733 
	C357.432495,128.319733 339.396698,128.319733 321.480286,128.319733 
	C321.480286,159.059372 321.480286,189.451202 321.480286,219.701660 
	C339.770538,219.701660 357.696228,219.701660 375.632843,219.701660 
	C375.632843,212.981705 375.632843,206.567490 375.632843,199.690857 
	C365.883972,199.690857 356.414093,199.690857 346.233032,199.081909 
M592.383545,184.499847 
	C592.383545,196.258194 592.383545,208.016556 592.383545,219.667816 
	C601.056458,219.667816 609.105957,219.667816 617.136230,219.667816 
	C617.136230,188.959702 617.136230,158.592621 617.136230,128.322174 
	C608.786743,128.322174 600.733032,128.322174 592.383606,128.322174 
	C592.383606,146.948715 592.383606,165.224274 592.383545,184.499847 
z"/>
<path fill="#F0985E" opacity="1.000000" stroke="none" 
	d="
M242.818161,291.825806 
	C225.583160,307.921173 205.318939,315.655090 182.250610,315.826935 
	C153.587280,316.040436 124.920898,315.928833 96.256157,315.845459 
	C62.735199,315.747986 37.074726,290.042023 37.001060,256.615753 
	C36.987221,250.337097 36.999077,244.058380 36.999077,237.142822 
	C41.030846,240.545685 44.331573,243.766815 48.053986,246.389420 
	C58.103302,253.469635 69.256042,257.300354 81.690369,257.270935 
	C110.688477,257.202332 139.686874,257.255188 168.685150,257.258759 
	C170.645584,257.259003 172.606018,257.258789 174.933807,257.258789 
	C175.105194,260.699493 175.250168,263.609985 175.450333,267.628815 
	C196.027802,254.400726 215.940140,241.600220 236.582230,228.330597 
	C216.107101,215.147675 196.217560,202.341766 175.551285,189.035767 
	C175.302170,192.928375 175.127060,195.664703 174.926010,198.806183 
	C173.175522,198.887131 171.558655,199.026154 169.941742,199.027039 
	C145.109879,199.040665 120.277855,199.091064 95.446182,199.022598 
	C62.690536,198.932297 37.142841,173.410080 37.003735,140.732101 
	C36.975693,134.144836 36.999683,127.557358 36.999683,119.953117 
	C48.153584,131.975220 60.899464,139.026291 76.242668,140.443939 
	C84.178017,141.177124 92.211563,140.878494 100.201584,140.978119 
	C105.518608,141.044418 110.837135,140.990692 116.601479,140.990692 
	C116.845970,144.099289 117.070869,146.958832 117.382912,150.926437 
	C137.958206,137.697601 157.863327,124.899651 178.327759,111.742088 
	C157.783554,98.529022 137.862549,85.716774 117.279503,72.478729 
	C117.083084,76.253296 116.931885,79.159019 116.782249,82.034439 
	C84.537552,85.986977 52.505508,79.018837 39.624691,41.237347 
	C37.849838,36.031425 37.502201,30.338928 36.362465,24.159538 
	C39.331059,24.159538 41.120842,24.159523 42.910625,24.159540 
	C69.409058,24.159788 95.907516,24.138571 122.405922,24.165134 
	C166.292725,24.209131 201.313004,52.274422 210.375549,95.177032 
	C213.817444,111.471184 212.031937,127.620552 206.008667,143.550629 
	C242.325577,155.913330 264.827789,180.482071 269.593262,218.724777 
	C273.111725,246.960037 263.574249,271.537018 242.818161,291.825806 
z"/>
<path fill="#2F2D2D" opacity="1.000000" stroke="none" 
	d="
M406.037109,220.003479 
	C402.578644,220.003479 399.613312,220.003479 396.385376,220.003479 
	C396.385376,189.252243 396.385376,158.871857 396.385376,127.104294 
	C412.278992,128.044922 428.129425,127.894287 443.616302,130.192825 
	C460.529907,132.703110 471.515930,145.613907 473.635162,163.024933 
	C475.012421,174.339951 474.426147,185.597366 469.332794,196.226410 
	C462.583069,210.312073 450.856476,217.369598 435.957703,219.042297 
	C426.235107,220.133850 416.345215,219.734818 406.037109,220.003479 
M421.031311,191.420013 
	C421.031311,194.027740 421.031311,196.635468 421.031311,199.164276 
	C437.971466,201.398300 447.118988,194.040604 448.173035,177.822235 
	C448.280762,176.164825 448.462799,174.506165 448.458344,172.848480 
	C448.406769,153.586227 438.829315,145.062134 421.031311,148.695007 
	C421.031311,162.572800 421.031311,176.506073 421.031311,191.420013 
z"/>
<path fill="#2F2D2D" opacity="1.000000" stroke="none" 
	d="
M556.188965,152.697083 
	C563.579285,175.123016 570.854492,197.169556 578.274109,219.653564 
	C569.187805,219.653564 560.497498,219.653564 551.180908,219.653564 
	C549.767700,214.495850 548.252930,208.967575 546.578979,202.858200 
	C537.319092,202.858200 527.872986,202.778580 518.433655,202.992081 
	C517.572266,203.011551 516.358704,204.783844 515.984497,205.957657 
	C514.527100,210.528625 513.342163,215.186493 512.040344,219.867950 
	C502.984619,219.867950 494.192261,219.867950 484.820068,219.867950 
	C488.568207,208.321121 492.239624,197.034058 495.895691,185.742035 
	C501.672607,167.899521 507.546143,150.086975 513.122192,132.181839 
	C514.270264,128.495285 515.962402,127.355331 519.768494,127.509323 
	C527.910583,127.838768 536.078125,127.733017 544.229065,127.542816 
	C547.009705,127.477936 548.333069,128.240234 549.151733,131.014999 
	C551.263794,138.173523 553.741882,145.224045 556.188965,152.697083 
M522.317932,181.783386 
	C528.522522,181.783386 534.727173,181.783386 541.268005,181.783386 
	C538.044800,169.266174 534.878723,156.970810 531.595825,144.221985 
	C528.374084,156.852463 525.304932,168.884567 522.317932,181.783386 
z"/>
<path fill="#2F2D2D" opacity="1.000000" stroke="none" 
	d="
M696.490723,214.591766 
	C693.658691,202.838989 693.658691,202.838989 682.257446,202.838989 
	C676.109985,202.838989 669.962585,202.838989 663.550964,202.838989 
	C661.933350,208.624481 660.380310,214.179230 658.794495,219.851105 
	C649.897644,219.851105 641.090881,219.851105 631.566833,219.851105 
	C641.579834,188.995667 651.496948,158.435562 661.497742,127.617447 
	C672.033264,127.617447 682.349487,127.545433 692.661133,127.731812 
	C693.663086,127.749916 695.183228,129.182999 695.542908,130.265045 
	C705.345398,159.755829 715.029175,189.286072 724.713806,218.815948 
	C724.803772,219.090408 724.638000,219.448792 724.580322,219.846130 
	C715.786560,219.846130 706.987305,219.846130 697.979614,219.846130 
	C697.516663,218.161438 697.079468,216.570679 696.490723,214.591766 
M680.130127,151.308121 
	C679.639404,149.127609 679.148621,146.947098 678.414490,143.685089 
	C675.080261,157.070312 672.008667,169.401108 668.896362,181.895416 
	C675.454407,181.895416 681.633911,181.895416 688.085815,181.895416 
	C685.427002,171.678329 682.878601,161.885529 680.130127,151.308121 
z"/>
<path fill="#2F2D2D" opacity="1.000000" stroke="none" 
	d="
M346.588623,199.386383 
	C356.414093,199.690857 365.883972,199.690857 375.632843,199.690857 
	C375.632843,206.567490 375.632843,212.981705 375.632843,219.701660 
	C357.696228,219.701660 339.770538,219.701660 321.480286,219.701660 
	C321.480286,189.451202 321.480286,159.059372 321.480286,128.319733 
	C339.396698,128.319733 357.432495,128.319733 375.693237,128.319733 
	C375.693237,134.696259 375.693237,140.966721 375.693237,147.775208 
	C365.990448,147.775208 356.264862,147.775208 346.294189,147.775208 
	C346.294189,152.725723 346.294189,157.149796 346.294189,162.096268 
	C355.159637,162.096268 364.052155,162.096268 373.335022,162.096268 
	C373.335022,168.974350 373.335022,175.345398 373.335022,182.241699 
	C364.351257,182.241699 355.437012,182.241699 346.233032,182.241699 
	C346.233032,188.196915 346.233032,193.639420 346.588623,199.386383 
z"/>
<path fill="#312F2F" opacity="1.000000" stroke="none" 
	d="
M592.383545,183.999847 
	C592.383606,165.224274 592.383606,146.948715 592.383606,128.322174 
	C600.733032,128.322174 608.786743,128.322174 617.136230,128.322174 
	C617.136230,158.592621 617.136230,188.959702 617.136230,219.667816 
	C609.105957,219.667816 601.056458,219.667816 592.383545,219.667816 
	C592.383545,208.016556 592.383545,196.258194 592.383545,183.999847 
z"/>
<path fill="#FDFDFD" opacity="1.000000" stroke="none" 
	d="
M421.031311,190.929688 
	C421.031311,176.506073 421.031311,162.572800 421.031311,148.695007 
	C438.829315,145.062134 448.406769,153.586227 448.458344,172.848480 
	C448.462799,174.506165 448.280762,176.164825 448.173035,177.822235 
	C447.118988,194.040604 437.971466,201.398300 421.031311,199.164276 
	C421.031311,196.635468 421.031311,194.027740 421.031311,190.929688 
z"/>
<path fill="#FAFAFA" opacity="1.000000" stroke="none" 
	d="
M522.276855,181.350037 
	C525.304932,168.884567 528.374084,156.852463 531.595825,144.221985 
	C534.878723,156.970810 538.044800,169.266174 541.268005,181.783386 
	C534.727173,181.783386 528.522522,181.783386 522.276855,181.350037 
z"/>
<path fill="#FAFAFA" opacity="1.000000" stroke="none" 
	d="
M680.230225,151.700424 
	C682.878601,161.885529 685.427002,171.678329 688.085815,181.895416 
	C681.633911,181.895416 675.454407,181.895416 668.896362,181.895416 
	C672.008667,169.401108 675.080261,157.070312 678.414490,143.685089 
	C679.148621,146.947098 679.639404,149.127609 680.230225,151.700424 
z"/>
</svg>